<?xml version="1.0" encoding="utf-8"?>
<!-- Generator: Adobe Illustrator 19.1.0, SVG Export Plug-In . SVG Version: 6.00 Build 0)  -->
<svg version="1.1" id="Layer_1" xmlns="http://www.w3.org/2000/svg" xmlns:xlink="http://www.w3.org/1999/xlink" x="0px" y="0px"
	 viewBox="-352 254.5 493.5 493.5" style="enable-background:new -352 254.5 493.5 493.5;" xml:space="preserve">
<path d="M117.4,339.3L100,321.9l-70,70c-2.8-0.9-5.8-1.5-8.9-1.5C5.6,390.4-7,403-7,418.5s12.6,28.1,28.1,28.1s28.1-12.6,28.1-28.1
	c0-3.3-0.6-6.4-1.6-9.3L117.4,339.3z"/>
<path d="M-231.3,390.3c-3.3,0-6.4,0.6-9.3,1.6l-69.9-69.9l-17.4,17.5l70,70c-0.9,2.8-1.5,5.8-1.5,8.9c0,15.5,12.6,28.1,28.1,28.1
	s28.1-12.6,28.1-28.1S-215.8,390.3-231.3,390.3z"/>
<path d="M-18.5,475.3c26.3,16.3,66.6,8.5,82.1-7L46,450.7c-17.4,17.4-40.5,15.4-55.9,0c-15.4-15.4-17.4-38.5,0-55.9l-17.6-17.6
	c-15.1,15.1-22.9,53.9-8.1,80.3l-71.6,71.6l-69.7-69.7c16.3-26.3,8.5-66.6-7-82.2l-17.6,17.6c17.4,17.4,15.4,40.5,0,55.9
	c-15.4,15.4-38.5,17.4-55.9,0l-17.6,17.6c15.1,15.1,53.9,22.9,80.3,8.1l75.1,75.1V642c-9.1,4.6-15.4,14.1-15.4,25.1
	c0,15.5,12.6,28.1,28.1,28.1c15.5,0,28.1-12.6,28.1-28.1c0-11.1-6.4-20.7-15.8-25.3v-90.4L-18.5,475.3z"/>
</svg>
