<?xml version="1.0" encoding="utf-8"?>
<!-- Generator: Adobe Illustrator 15.0.0, SVG Export Plug-In . SVG Version: 6.00 Build 0)  -->
<!DOCTYPE svg PUBLIC "-//W3C//DTD SVG 1.1//EN" "http://www.w3.org/Graphics/SVG/1.1/DTD/svg11.dtd">
<svg version="1.1" id="Layer_1" xmlns="http://www.w3.org/2000/svg" xmlns:xlink="http://www.w3.org/1999/xlink" x="0px" y="0px"
	 width="333.333px" height="333.334px" viewBox="0 0 333.333 333.334" enable-background="new 0 0 333.333 333.334"
	 xml:space="preserve">
<rect fill="#37A7C9" width="333.333" height="333.334"/>
<g>
	<path fill="#FFFFFF" d="M61.455,102.842v127.649H33.386V102.842H61.455z"/>
	<path fill="#FFFFFF" d="M143.694,102.842c7.984,0,14.777,1.162,20.381,3.486c5.601,2.324,10.16,5.395,13.677,9.207
		c3.514,3.816,6.078,8.165,7.687,13.051c1.609,4.888,2.414,9.953,2.414,15.196c0,5.126-0.805,10.163-2.414,15.107
		c-1.609,4.947-4.173,9.327-7.687,13.141c-3.517,3.816-8.076,6.883-13.677,9.207c-5.604,2.324-12.397,3.486-20.381,3.486h-29.499
		v45.768H86.126V102.842H143.694z M136.006,162.912c3.218,0,6.316-0.237,9.297-0.715c2.978-0.475,5.601-1.399,7.866-2.771
		c2.262-1.369,4.081-3.308,5.453-5.81c1.369-2.503,2.056-5.78,2.056-9.833c0-4.05-0.687-7.33-2.056-9.833
		c-1.372-2.503-3.19-4.438-5.453-5.81c-2.266-1.369-4.889-2.294-7.866-2.771c-2.98-0.475-6.079-0.715-9.297-0.715h-21.811v38.259
		H136.006z"/>
	<path fill="#FFFFFF" d="M195.36,126.441v-23.599h104.585v23.599h-38.259v104.05H233.62v-104.05H195.36z"/>
</g>
</svg>
