<?xml version="1.0" standalone="no"?>
<!DOCTYPE svg PUBLIC "-//W3C//DTD SVG 20010904//EN"
 "http://www.w3.org/TR/2001/REC-SVG-20010904/DTD/svg10.dtd">
<svg version="1.0" xmlns="http://www.w3.org/2000/svg"
 width="700.000000pt" height="700.000000pt" viewBox="0 0 700.000000 700.000000"
 preserveAspectRatio="xMidYMid meet">
<metadata>
Created by potrace 1.11, written by Peter Selinger 2001-2013
</metadata>
<g transform="translate(0.000000,700.000000) scale(0.100000,-0.100000)"
fill="#000000" stroke="none">
<path d="M0 3500 l0 -3500 3500 0 3500 0 0 3500 0 3500 -3500 0 -3500 0 0
-3500z m1290 0 l0 -1340 -295 0 -295 0 0 1340 0 1340 295 0 295 0 0 -1340z
m1990 1317 c191 -47 314 -112 431 -227 76 -75 93 -98 137 -190 76 -159 87
-212 86 -425 0 -167 -2 -186 -28 -270 -101 -330 -351 -529 -721 -574 -50 -6
-245 -11 -437 -11 l-348 0 0 -480 0 -480 -295 0 -295 0 0 1341 0 1340 703 -4
c603 -3 711 -6 767 -20z m3018 -224 l-3 -248 -397 -3 -398 -2 0 -1090 0 -1090
-295 0 -295 0 0 1090 0 1090 -402 2 -403 3 -3 248 -2 247 1100 0 1100 0 -2
-247z"/>
<path d="M2400 3980 l0 -402 323 5 c339 4 372 8 465 56 65 33 118 87 149 149
26 54 28 65 28 192 0 117 -3 141 -21 181 -44 95 -127 161 -249 197 -38 11
-127 16 -372 19 l-323 5 0 -402z"/>
</g>
</svg>
